<?xml version="1.0" encoding="utf-8"?>
<!-- Generator: Adobe Illustrator 28.0.0, SVG Export Plug-In . SVG Version: 6.00 Build 0)  -->
<svg version="1.1" id="Layer_1" xmlns="http://www.w3.org/2000/svg" xmlns:xlink="http://www.w3.org/1999/xlink" x="0px" y="0px"
	 viewBox="0 0 256 237.4" style="enable-background:new 0 0 256 237.4;" xml:space="preserve">
<style type="text/css">
	.st0{fill:#E2761B;}
	.st1{fill:#E4761B;}
	.st2{fill:#D7C1B3;}
	.st3{fill:#233447;}
	.st4{fill:#CD6116;}
	.st5{fill:#E4751F;}
	.st6{fill:#F6851B;}
	.st7{fill:#C0AD9E;}
	.st8{fill:#161616;}
	.st9{fill:#763D16;}
</style>
<g>
	<g>
		<path class="st0" d="M242.8,0.5l-99.5,73.9l18.4-43.6L242.8,0.5z"/>
		<path class="st0" d="M143.3,74.9c-0.1,0-0.2,0-0.3-0.1c-0.2-0.1-0.2-0.4-0.2-0.6l18.4-43.6c0.1-0.1,0.2-0.2,0.3-0.3L242.6,0
			c0.2-0.1,0.5,0,0.6,0.2c0.1,0.2,0.1,0.5-0.1,0.6l-99.5,73.9C143.5,74.9,143.4,74.9,143.3,74.9z M162.1,31.2l-17.6,41.7l95.2-70.7
			L162.1,31.2z"/>
	</g>
	<g>
		<path class="st1" d="M13.1,0.5l98.7,74.6L94.3,30.8L13.1,0.5z M207,171.8l-26.5,40.6l56.7,15.6l16.3-55.3L207,171.8z M2.6,172.7
			L18.8,228l56.7-15.6L49,171.8L2.6,172.7z"/>
		<path class="st1" d="M18.8,228.5c-0.2,0-0.4-0.1-0.5-0.4L2.1,172.8c0-0.1,0-0.3,0.1-0.4c0.1-0.1,0.2-0.2,0.4-0.2l46.4-0.9
			c0.2,0,0.3,0.1,0.4,0.2l26.5,40.6c0.1,0.1,0.1,0.3,0,0.5c-0.1,0.1-0.2,0.3-0.3,0.3l-56.7,15.6C18.9,228.5,18.8,228.5,18.8,228.5z
			 M3.3,173.2l15.9,54.2l55.6-15.3l-26-39.8L3.3,173.2z M237.2,228.5c0,0-0.1,0-0.1,0l-56.7-15.6c-0.2,0-0.3-0.2-0.3-0.3
			s0-0.3,0-0.5l26.5-40.6c0.1-0.1,0.3-0.2,0.4-0.2l46.5,0.9c0.2,0,0.3,0.1,0.4,0.2c0.1,0.1,0.1,0.3,0.1,0.4l-16.3,55.3
			C237.6,228.4,237.4,228.5,237.2,228.5z M181.3,212.1l55.6,15.3l16-54.2l-45.6-0.9L181.3,212.1z M111.8,75.6c-0.1,0-0.2,0-0.3-0.1
			L12.8,0.9c-0.2-0.1-0.3-0.4-0.1-0.6C12.8,0,13-0.1,13.3,0l81.2,30.3c0.1,0,0.2,0.2,0.3,0.3l17.5,44.3c0.1,0.2,0,0.4-0.2,0.6
			C112,75.6,111.9,75.6,111.8,75.6z M16.1,2.2l94.5,71.5L93.9,31.2L16.1,2.2z"/>
	</g>
	<g>
		<path class="st1" d="M72.3,103.2l-15.8,23.9l56.3,2.5l-2-60.5L72.3,103.2z M183.6,103.2l-39-34.8l-1.3,61.2l56.2-2.5L183.6,103.2z
			 M75.5,212.4l33.8-16.5l-29.2-22.8L75.5,212.4z M146.6,195.9l33.9,16.5l-4.7-39.3L146.6,195.9z"/>
		<path class="st1" d="M180.5,212.9c-0.1,0-0.1,0-0.2-0.1l-33.9-16.5c-0.2-0.1-0.3-0.2-0.3-0.4c0-0.2,0.1-0.3,0.2-0.4l29.2-22.8
			c0.1-0.1,0.3-0.1,0.5-0.1c0.2,0.1,0.3,0.2,0.3,0.4l4.7,39.3c0,0.2-0.1,0.4-0.2,0.5C180.7,212.9,180.6,212.9,180.5,212.9z
			 M147.5,195.8l32.4,15.7l-4.5-37.5L147.5,195.8z M75.5,212.9c-0.1,0-0.2,0-0.3-0.1c-0.1-0.1-0.2-0.3-0.2-0.5l4.6-39.3
			c0-0.2,0.1-0.3,0.3-0.4c0.2-0.1,0.4,0,0.5,0.1l29.2,22.8c0.1,0.1,0.2,0.3,0.2,0.4c0,0.2-0.1,0.3-0.3,0.4l-33.8,16.5
			C75.6,212.9,75.6,212.9,75.5,212.9z M80.5,174l-4.4,37.5l32.3-15.7L80.5,174z M143.3,130.1c-0.1,0-0.3-0.1-0.3-0.1
			c-0.1-0.1-0.2-0.2-0.2-0.4l1.3-61.2c0-0.2,0.1-0.4,0.3-0.4c0.2-0.1,0.4,0,0.5,0.1l39,34.8c0,0,0.1,0.1,0.1,0.1l15.9,23.9
			c0.1,0.2,0.1,0.3,0,0.5c-0.1,0.2-0.2,0.3-0.4,0.3L143.3,130.1C143.3,130.1,143.3,130.1,143.3,130.1z M145.1,69.5l-1.3,59.6
			l54.8-2.4l-15.4-23.1L145.1,69.5z M112.8,130.1C112.8,130.1,112.8,130.1,112.8,130.1l-56.3-2.5c-0.2,0-0.3-0.1-0.4-0.3
			c-0.1-0.2-0.1-0.4,0-0.5l15.8-23.9c0,0,0.1-0.1,0.1-0.1l38.5-34.1c0.1-0.1,0.4-0.2,0.5-0.1c0.2,0.1,0.3,0.2,0.3,0.4l2,60.5
			c0,0.1,0,0.3-0.1,0.4C113.1,130,112.9,130.1,112.8,130.1z M57.4,126.6l54.9,2.4l-1.9-58.9l-37.7,33.4L57.4,126.6z"/>
	</g>
	<g>
		<path class="st2" d="M180.5,212.4l-33.9-16.5l2.7,22.1l-0.3,9.3L180.5,212.4z M75.5,212.4l31.5,14.9l-0.2-9.3l2.5-22.1L75.5,212.4
			z"/>
		<path class="st2" d="M149,227.8c-0.1,0-0.2,0-0.3-0.1c-0.1-0.1-0.2-0.3-0.2-0.4l0.3-9.3l-2.7-22c0-0.2,0.1-0.4,0.2-0.5
			c0.1-0.1,0.3-0.1,0.5,0l33.9,16.5c0.2,0.1,0.3,0.3,0.3,0.5s-0.1,0.4-0.3,0.4l-31.5,14.9C149.1,227.8,149.1,227.8,149,227.8z
			 M147.2,196.8l2.6,21.2l-0.3,8.6l29.8-14.1L147.2,196.8z M107,227.8c-0.1,0-0.1,0-0.2,0l-31.5-14.9c-0.2-0.1-0.3-0.3-0.3-0.4
			s0.1-0.4,0.3-0.5l33.8-16.5c0.2-0.1,0.4-0.1,0.5,0c0.1,0.1,0.2,0.3,0.2,0.5l-2.5,22.1l0.2,9.2c0,0.2-0.1,0.3-0.2,0.4
			C107.2,227.8,107.1,227.8,107,227.8z M76.7,212.4l29.8,14.1l-0.2-8.5l2.4-21.3L76.7,212.4z"/>
	</g>
	<g>
		<path class="st3" d="M107.5,158.5l-28.2-8.3l19.9-9.1L107.5,158.5z M148.4,158.5l8.3-17.4l20,9.1L148.4,158.5z"/>
		<path class="st3" d="M107.5,159c0,0-0.1,0-0.1,0l-28.2-8.3c-0.2-0.1-0.3-0.2-0.4-0.4c0-0.2,0.1-0.4,0.3-0.5l19.9-9.1
			c0.2-0.1,0.5,0,0.7,0.2l8.3,17.4c0.1,0.2,0.1,0.4-0.1,0.5C107.8,158.9,107.6,159,107.5,159z M80.7,150.1l25.8,7.6L99,141.8
			L80.7,150.1z M148.4,159c-0.1,0-0.3-0.1-0.4-0.2c-0.1-0.2-0.2-0.4-0.1-0.5l8.3-17.4c0.1-0.2,0.4-0.4,0.7-0.2l20,9.1
			c0.2,0.1,0.3,0.3,0.3,0.5c0,0.2-0.2,0.4-0.4,0.4l-28.3,8.3C148.5,159,148.4,159,148.4,159z M156.9,141.8l-7.6,15.9l25.9-7.6
			L156.9,141.8z"/>
	</g>
	<g>
		<path class="st4" d="M75.5,212.4l4.8-40.6L49,172.7L75.5,212.4z M175.7,171.8l4.8,40.6l26.5-39.7L175.7,171.8z M199.5,127.1
			l-56.2,2.5l5.2,28.9l8.3-17.4l20,9.1L199.5,127.1z M79.3,150.2l20-9.1l8.2,17.4l5.3-28.9l-56.3-2.5L79.3,150.2z"/>
		<path class="st4" d="M180.5,212.9c0,0-0.1,0-0.1,0c-0.2,0-0.4-0.2-0.4-0.4l-4.8-40.6c0-0.1,0-0.3,0.1-0.4c0.1-0.1,0.2-0.2,0.4-0.2
			l31.3,0.9c0.2,0,0.3,0.1,0.4,0.3c0.1,0.2,0.1,0.4,0,0.5l-26.5,39.7C180.8,212.8,180.7,212.9,180.5,212.9z M176.3,172.3l4.6,38.7
			l25.2-37.8L176.3,172.3z M75.5,212.9c-0.2,0-0.3-0.1-0.4-0.2L48.6,173c-0.1-0.2-0.1-0.3,0-0.5c0.1-0.2,0.2-0.3,0.4-0.3l31.3-0.9
			c0.1,0,0.3,0.1,0.4,0.2c0.1,0.1,0.1,0.3,0.1,0.4L76,212.5c0,0.2-0.2,0.4-0.4,0.4C75.6,212.9,75.5,212.9,75.5,212.9z M49.9,173.2
			L75.2,211l4.6-38.7L49.9,173.2z M107.5,159c-0.2,0-0.4-0.1-0.5-0.3l-8-17l-19.6,8.9c-0.2,0.1-0.4,0-0.6-0.1l-22.8-23.1
			c-0.1-0.1-0.2-0.4-0.1-0.6c0.1-0.2,0.3-0.3,0.5-0.3l56.3,2.5c0.1,0,0.3,0.1,0.4,0.2s0.1,0.3,0.1,0.4l-5.3,28.9
			C108,158.8,107.8,159,107.5,159C107.5,159,107.5,159,107.5,159z M99.3,140.6c0.2,0,0.4,0.1,0.5,0.3l7.5,16l4.9-26.8l-54.5-2.4
			l21.7,21.9l19.7-9C99.2,140.6,99.2,140.6,99.3,140.6z M148.5,159C148.5,159,148.5,159,148.5,159c-0.3,0-0.5-0.2-0.5-0.4l-5.2-28.9
			c0-0.1,0-0.3,0.1-0.4c0.1-0.1,0.2-0.2,0.4-0.2l56.2-2.5c0.2,0,0.4,0.1,0.5,0.3c0.1,0.2,0,0.4-0.1,0.6l-22.7,23.1
			c-0.1,0.2-0.4,0.2-0.6,0.1l-19.6-8.9l-8.1,17C148.9,158.9,148.7,159,148.5,159z M143.9,130.1l4.8,26.8l7.6-16
			c0.1-0.2,0.4-0.4,0.7-0.2l19.7,9l21.6-21.9L143.9,130.1z"/>
	</g>
	<g>
		<path class="st5" d="M56.5,127.1l23.6,46l-0.8-22.9L56.5,127.1z M176.8,150.2l-1,22.9l23.7-46L176.8,150.2z M112.8,129.6
			l-5.3,28.9l6.6,34.1l1.5-44.9L112.8,129.6z M143.3,129.6l-2.7,18l1.2,45l6.7-34.1L143.3,129.6z"/>
		<path class="st5" d="M141.8,193.1C141.8,193.1,141.8,193.1,141.8,193.1c-0.3,0-0.5-0.2-0.5-0.5l-1.2-45l2.7-18.1
			c0-0.2,0.2-0.4,0.5-0.4c0.2,0,0.5,0.2,0.5,0.4l5.2,28.9c0,0.1,0,0.1,0,0.2l-6.7,34.1C142.2,192.9,142,193.1,141.8,193.1z
			 M143.3,132.7l-2.2,15l1.1,40.4l5.8-29.6L143.3,132.7z M114.1,193.1c-0.2,0-0.4-0.2-0.5-0.4l-6.6-34.1c0-0.1,0-0.1,0-0.2l5.3-28.9
			c0-0.2,0.2-0.4,0.5-0.4c0.2,0,0.5,0.2,0.5,0.4l2.8,18.1l-1.5,45C114.6,192.9,114.4,193.1,114.1,193.1
			C114.1,193.1,114.1,193.1,114.1,193.1z M108,158.5l5.7,29.7l1.4-40.5l-2.3-15.1L108,158.5z M175.8,173.6c0,0-0.1,0-0.1,0
			c-0.2-0.1-0.4-0.3-0.4-0.5l1-22.9c0-0.1,0.1-0.2,0.1-0.3l22.7-23.1c0.2-0.2,0.5-0.2,0.6-0.1c0.2,0.1,0.3,0.4,0.2,0.6l-23.7,46
			C176.2,173.5,176,173.6,175.8,173.6z M177.3,150.4l-0.9,20.4l21.1-41L177.3,150.4z M80.1,173.6c-0.2,0-0.4-0.1-0.4-0.3l-23.6-46
			c-0.1-0.2,0-0.5,0.2-0.6c0.2-0.1,0.5-0.1,0.6,0.1l22.8,23.1c0.1,0.1,0.1,0.2,0.1,0.3l0.8,22.9c0,0.2-0.1,0.4-0.4,0.5
			C80.2,173.6,80.1,173.6,80.1,173.6z M58.4,129.8l21.1,41.1l-0.7-20.5L58.4,129.8z"/>
	</g>
	<g>
		<path class="st6" d="M148.5,158.5l-6.7,34.1l4.8,3.3l29.2-22.8l1-22.9L148.5,158.5z M79.3,150.2l0.8,22.9l29.2,22.8l4.8-3.3
			l-6.6-34.1L79.3,150.2z"/>
		<path class="st6" d="M146.6,196.4c-0.1,0-0.2,0-0.3-0.1l-4.8-3.3c-0.2-0.1-0.2-0.3-0.2-0.5l6.7-34.1c0-0.2,0.2-0.3,0.3-0.4
			l28.3-8.3c0.2,0,0.3,0,0.4,0.1c0.1,0.1,0.2,0.3,0.2,0.4l-1,22.9c0,0.1-0.1,0.3-0.2,0.4l-29.2,22.8
			C146.8,196.4,146.7,196.4,146.6,196.4z M142.4,192.4l4.2,2.9l28.7-22.4l1-22l-27.3,8L142.4,192.4z M109.3,196.4
			c-0.1,0-0.2,0-0.3-0.1l-29.2-22.8c-0.1-0.1-0.2-0.2-0.2-0.4l-0.8-22.9c0-0.2,0.1-0.3,0.2-0.4c0.1-0.1,0.3-0.1,0.4-0.1l28.2,8.3
			c0.2,0.1,0.3,0.2,0.3,0.4l6.6,34.1c0,0.2,0,0.4-0.2,0.5l-4.8,3.3C109.5,196.4,109.4,196.4,109.3,196.4z M80.6,172.8l28.7,22.4
			l4.2-2.9l-6.5-33.5l-27.2-8L80.6,172.8z"/>
	</g>
	<g>
		<path class="st7" d="M149,227.3l0.3-9.3l-2.5-2.2h-37.7l-2.3,2.2l0.2,9.3l-31.5-14.9l11,9l22.3,15.5h38.3l22.4-15.5l11-9
			L149,227.3z"/>
		<path class="st7" d="M147.1,237.4h-38.3c-0.1,0-0.2,0-0.3-0.1l-22.3-15.5l-11-9c-0.2-0.2-0.2-0.4-0.1-0.7c0.1-0.2,0.4-0.3,0.6-0.2
			l30.8,14.6l-0.2-8.5c0-0.1,0.1-0.3,0.2-0.4l2.3-2.2c0.1-0.1,0.2-0.1,0.3-0.1h37.7c0.1,0,0.2,0,0.3,0.1l2.5,2.2
			c0.1,0.1,0.2,0.2,0.2,0.4l-0.3,8.5l30.8-14.5c0.2-0.1,0.5,0,0.6,0.2c0.1,0.2,0.1,0.5-0.1,0.7l-11,9l-22.4,15.5
			C147.3,237.4,147.2,237.4,147.1,237.4z M109,236.4h38l22.3-15.4l7.8-6.4l-27.8,13.2c-0.2,0.1-0.3,0.1-0.5,0
			c-0.1-0.1-0.2-0.3-0.2-0.4l0.3-9.1l-2.2-1.9h-37.3l-2,1.9l0.2,9.1c0,0.2-0.1,0.3-0.2,0.4c-0.1,0.1-0.3,0.1-0.5,0L79,214.6l7.8,6.4
			L109,236.4z"/>
	</g>
	<g>
		<path class="st8" d="M146.6,195.9l-4.8-3.3h-27.7l-4.8,3.3l-2.5,22.1l2.3-2.2h37.7l2.5,2.2L146.6,195.9z"/>
		<path class="st8" d="M106.8,218.5c-0.1,0-0.2,0-0.2-0.1c-0.2-0.1-0.3-0.3-0.3-0.5l2.5-22.1c0-0.1,0.1-0.3,0.2-0.4l4.8-3.3
			c0.1-0.1,0.2-0.1,0.3-0.1h27.7c0.1,0,0.2,0,0.3,0.1l4.8,3.3c0.1,0.1,0.2,0.2,0.2,0.4l2.7,22.1c0,0.2-0.1,0.4-0.3,0.5
			c-0.2,0.1-0.4,0.1-0.6-0.1l-2.4-2.1h-37.3l-2.2,2.1C107.1,218.5,106.9,218.5,106.8,218.5z M109.1,215.3h37.7c0.1,0,0.2,0,0.3,0.1
			l1.5,1.3l-2.5-20.6l-4.5-3.1h-27.4l-4.5,3.1l-2.3,20.5l1.3-1.2C108.8,215.3,109,215.3,109.1,215.3z"/>
	</g>
	<g>
		<path class="st9" d="M247,79.2l8.5-40.8L242.8,0.5l-96.2,71.4l37,31.3l52.3,15.3l11.6-13.5l-5-3.6l8-7.3l-6.2-4.8l8-6.1L247,79.2z
			 M0.5,38.4L9,79.2l-5.4,4l8,6.1l-6.1,4.8l8,7.3l-5,3.6L20,118.5l52.3-15.3l37-31.3L13.1,0.5L0.5,38.4z"/>
		<path class="st9" d="M20,119c-0.1,0-0.3-0.1-0.4-0.2L8.1,105.3C8,105.2,8,105.1,8,104.9c0-0.1,0.1-0.3,0.2-0.3l4.5-3.2l-7.5-6.9
			C5.1,94.4,5,94.2,5,94.1c0-0.1,0.1-0.3,0.2-0.4l5.6-4.4l-7.5-5.7c-0.1-0.1-0.2-0.2-0.2-0.4s0.1-0.3,0.2-0.4L8.4,79L0,38.5
			c0-0.1,0-0.2,0-0.3L12.6,0.3c0.1-0.2,0.2-0.3,0.3-0.3c0.2,0,0.3,0,0.4,0.1l96.2,71.4c0.1,0.1,0.2,0.2,0.2,0.4
			c0,0.2-0.1,0.3-0.2,0.4l-37,31.3c-0.1,0-0.1,0.1-0.2,0.1L20.1,119C20.1,119,20,119,20,119z M9.2,105.1l10.9,12.8l51.9-15.2
			l36.4-30.8L13.4,1.3L1,38.4l8.5,40.7c0,0.2,0,0.4-0.2,0.5l-4.9,3.6l7.5,5.7c0.1,0.1,0.2,0.2,0.2,0.4s-0.1,0.3-0.2,0.4l-5.6,4.4
			l7.6,6.9c0.1,0.1,0.2,0.2,0.2,0.4s-0.1,0.3-0.2,0.4L9.2,105.1z M235.9,119c0,0-0.1,0-0.1,0l-52.3-15.3c-0.1,0-0.1-0.1-0.2-0.1
			l-37-31.3c-0.1-0.1-0.2-0.2-0.2-0.4c0-0.2,0.1-0.3,0.2-0.4l96.2-71.4C242.6,0,242.8,0,243,0c0.2,0,0.3,0.2,0.3,0.3L256,38.2
			c0,0.1,0,0.2,0,0.3L247.6,79l5,3.8c0.1,0.1,0.2,0.2,0.2,0.4c0,0.2-0.1,0.3-0.2,0.4l-7.5,5.7l5.7,4.4c0.1,0.1,0.2,0.2,0.2,0.4
			c0,0.1-0.1,0.3-0.2,0.4l-7.5,6.9l4.5,3.2c0.1,0.1,0.2,0.2,0.2,0.3s0,0.3-0.1,0.4l-11.6,13.5C236.2,118.9,236,119,235.9,119z
			 M183.8,102.8l51.9,15.2l11-12.8l-4.6-3.3c-0.1-0.1-0.2-0.2-0.2-0.4s0.1-0.3,0.2-0.4l7.6-6.9l-5.7-4.4c-0.1-0.1-0.2-0.2-0.2-0.4
			s0.1-0.3,0.2-0.4l7.5-5.7l-4.8-3.6c-0.2-0.1-0.2-0.3-0.2-0.5l8.5-40.7L242.5,1.3l-95.1,70.6L183.8,102.8z"/>
	</g>
	<g>
		<path class="st6" d="M235.9,118.5l-52.3-15.3l15.9,23.9l-23.7,46l31.2-0.4h46.5L235.9,118.5z M72.3,103.2L20,118.5L2.6,172.7H49
			l31.1,0.4l-23.6-46L72.3,103.2z M143.3,129.6l3.3-57.7l15.2-41.1H94.3l15,41.1l3.5,57.7l1.2,18.2l0.1,44.8h27.7l0.2-44.8
			L143.3,129.6z"/>
		<path class="st6" d="M141.8,193.1h-27.7c-0.3,0-0.5-0.2-0.5-0.5l-0.1-44.8l-1.2-18.2L108.8,72l-15-41c-0.1-0.2,0-0.3,0.1-0.5
			s0.2-0.2,0.4-0.2h67.5c0.2,0,0.3,0.1,0.4,0.2s0.1,0.3,0.1,0.5l-15.2,41l-3.3,57.6c0,0,0,0,0,0l-1.3,18.2l-0.2,44.8
			C142.3,192.9,142.1,193.1,141.8,193.1z M114.6,192.1h26.7l0.2-44.3l1.3-18.2l3.3-57.7c0,0,0-0.1,0-0.1l15-40.4H95l14.8,40.4
			c0,0,0,0.1,0,0.1l3.5,57.7l1.2,18.2L114.6,192.1z M143.3,129.6L143.3,129.6L143.3,129.6z M80.1,173.6
			C80.1,173.6,80.1,173.6,80.1,173.6L49,173.2H2.6c-0.2,0-0.3-0.1-0.4-0.2c-0.1-0.1-0.1-0.3-0.1-0.4l17.4-54.2
			c0.1-0.2,0.2-0.3,0.3-0.3l52.3-15.3c0.2-0.1,0.4,0,0.5,0.2c0.1,0.2,0.1,0.4,0,0.6l-15.6,23.7l23.5,45.7c0.1,0.2,0.1,0.3,0,0.5
			C80.4,173.5,80.3,173.6,80.1,173.6z M3.3,172.2H49l30.3,0.4l-23.2-45.3c-0.1-0.2-0.1-0.4,0-0.5l15-22.8l-50.7,14.8L3.3,172.2z
			 M175.8,173.6c-0.2,0-0.3-0.1-0.4-0.2c-0.1-0.1-0.1-0.3,0-0.5l23.6-45.7l-15.7-23.7c-0.1-0.2-0.1-0.4,0-0.6
			c0.1-0.2,0.3-0.2,0.5-0.2L236,118c0.2,0,0.3,0.2,0.3,0.3l17.6,54.2c0,0.2,0,0.3-0.1,0.4c-0.1,0.1-0.2,0.2-0.4,0.2H207L175.8,173.6
			C175.8,173.6,175.8,173.6,175.8,173.6z M184.8,104.1l15.1,22.8c0.1,0.2,0.1,0.3,0,0.5l-23.3,45.3l30.4-0.4h45.8l-17.3-53.3
			L184.8,104.1z"/>
	</g>
</g>
</svg>
